<svg width="509" height="491" xmlns="http://www.w3.org/2000/svg" xmlns:xlink="http://www.w3.org/1999/xlink" overflow="hidden"><defs><clipPath id="clip0"><path d="M342 118 851 118 851 609 342 609Z" fill-rule="evenodd" clip-rule="evenodd"/></clipPath><clipPath id="clip1"><path d="M402 173 790 173 790 547 402 547Z" fill-rule="evenodd" clip-rule="evenodd"/></clipPath><clipPath id="clip2"><path d="M402 173 791 173 791 547 402 547Z" fill-rule="evenodd" clip-rule="evenodd"/></clipPath><clipPath id="clip3"><path d="M402 173 791 173 791 547 402 547Z" fill-rule="evenodd" clip-rule="evenodd"/></clipPath></defs><g clip-path="url(#clip0)" transform="translate(-342 -118)"><path d="M347 363.5C347 230.676 458.705 123 596.5 123 734.295 123 846 230.676 846 363.5 846 496.324 734.295 604 596.5 604 458.705 604 347 496.324 347 363.5Z" stroke="#FFFFFF" stroke-width="8" stroke-miterlimit="8" fill="#006E47" fill-rule="evenodd"/><g clip-path="url(#clip1)"><g clip-path="url(#clip2)"><g clip-path="url(#clip3)"><path d="M229.854 167.521C229.854 193.34 208.923 214.271 183.104 214.271 157.285 214.271 136.354 193.34 136.354 167.521 136.354 141.702 157.285 120.771 183.104 120.771 208.923 120.771 229.854 141.702 229.854 167.521Z" fill="#FFFFFF" transform="matrix(1.03743 0 -0 1 402 173)"/><path d="M280.5 113.758C280.5 122.365 273.523 129.342 264.917 129.342 256.31 129.342 249.333 122.365 249.333 113.758 249.333 105.152 256.31 98.175 264.917 98.175 273.523 98.175 280.5 105.152 280.5 113.758Z" fill="#FFFFFF" transform="matrix(1.03743 0 -0 1 402 173)"/><path d="M109.083 292.967C109.083 301.573 102.106 308.55 93.5 308.55 84.8936 308.55 77.9167 301.573 77.9167 292.967 77.9167 284.36 84.8936 277.383 93.5 277.383 102.106 277.383 109.083 284.36 109.083 292.967Z" fill="#FFFFFF" transform="matrix(1.03743 0 -0 1 402 173)"/><path d="M337.379 102.071C324.523 78.3063 296.083 65.45 257.904 65.45 221.283 65.45 179.598 77.1375 140.25 98.9542 56.1 144.535 10.5188 218.167 36.6208 266.085 42.8542 276.604 51.8146 285.565 62.7229 291.019 63.1125 285.565 64.6708 280.5 67.7875 276.215 60.3854 271.929 54.5417 266.085 50.6458 258.683 29.2188 219.725 74.0208 152.717 148.431 112.2 185.442 91.9417 224.79 80.6438 258.683 80.6438 291.019 80.6438 314.394 90.7729 324.523 109.083 334.652 127.394 330.367 152.717 313.225 179.598 294.915 208.038 264.138 234.919 227.127 255.567 192.844 274.267 157.002 285.175 125.056 286.733 125.446 288.681 125.835 290.629 125.835 292.967 125.835 296.083 125.056 299.2 124.277 302.317 158.95 300.758 197.908 289.46 234.919 269.202 274.267 247.775 306.992 218.946 326.86 188.169 345.95 156.223 350.235 125.446 337.379 102.071Z" fill="#FFFFFF" transform="matrix(1.03743 0 -0 1 402 173)"/><path d="M285.175 137.523C281.279 141.029 276.215 143.367 271.15 144.535 277.383 167.521 251.281 203.363 209.985 225.958 187.39 238.425 163.625 245.048 143.367 245.048 124.277 245.048 111.031 239.204 105.188 228.685 99.7333 218.946 101.681 205.7 110.252 191.285 108.694 182.325 109.083 172.975 111.031 164.015 106.746 168.69 102.46 174.144 98.9542 179.598 85.7083 200.635 82.9812 220.504 91.5521 236.087 100.123 251.671 118.433 260.242 143.367 260.242 166.352 260.242 192.844 252.84 217.387 239.204 268.033 211.933 296.473 168.3 285.175 137.523Z" fill="#FFFFFF" transform="matrix(1.03743 0 -0 1 402 173)"/></g></g></g></g></svg>