<svg width="483" height="412" xmlns="http://www.w3.org/2000/svg" xmlns:xlink="http://www.w3.org/1999/xlink" overflow="hidden"><defs><clipPath id="clip0"><path d="M342 147 825 147 825 559 342 559Z" fill-rule="evenodd" clip-rule="evenodd"/></clipPath><clipPath id="clip1"><path d="M389 166 778 166 778 554 389 554Z" fill-rule="evenodd" clip-rule="evenodd"/></clipPath><clipPath id="clip2"><path d="M389 166 778 166 778 555 389 555Z" fill-rule="evenodd" clip-rule="evenodd"/></clipPath><clipPath id="clip3"><path d="M389 166 778 166 778 555 389 555Z" fill-rule="evenodd" clip-rule="evenodd"/></clipPath></defs><g clip-path="url(#clip0)" transform="translate(-342 -147)"><rect x="347" y="152" width="473" height="402" stroke="#FFFFFF" stroke-width="8" stroke-miterlimit="8" fill="#006E47"/><g clip-path="url(#clip1)"><g clip-path="url(#clip2)"><g clip-path="url(#clip3)"><path d="M238.458 173.792C238.458 200.577 216.744 222.292 189.958 222.292 163.173 222.292 141.458 200.577 141.458 173.792 141.458 147.006 163.173 125.292 189.958 125.292 216.744 125.292 238.458 147.006 238.458 173.792Z" fill="#FFFFFF" transform="matrix(1.00258 0 -0 1 389 166)"/><path d="M291 118.017C291 126.945 283.762 134.183 274.833 134.183 265.905 134.183 258.667 126.945 258.667 118.017 258.667 109.088 265.905 101.85 274.833 101.85 283.762 101.85 291 109.088 291 118.017Z" fill="#FFFFFF" transform="matrix(1.00258 0 -0 1 389 166)"/><path d="M113.167 303.933C113.167 312.862 105.929 320.1 97 320.1 88.0714 320.1 80.8333 312.862 80.8333 303.933 80.8333 295.005 88.0714 287.767 97 287.767 105.929 287.767 113.167 295.005 113.167 303.933Z" fill="#FFFFFF" transform="matrix(1.00258 0 -0 1 389 166)"/><path d="M350.008 105.892C336.671 81.2375 307.167 67.9 267.558 67.9 229.567 67.9 186.321 80.025 145.5 102.658 58.2 149.946 10.9125 226.333 37.9917 276.046 44.4583 286.958 53.7542 296.254 65.0708 301.912 65.475 296.254 67.0917 291 70.325 286.554 62.6458 282.108 56.5833 276.046 52.5417 268.367 30.3125 227.95 76.7917 158.433 153.987 116.4 192.383 95.3833 233.204 83.6625 268.367 83.6625 301.912 83.6625 326.162 94.1708 336.671 113.167 347.179 132.162 342.733 158.433 324.95 186.321 305.954 215.825 274.025 243.712 235.629 265.133 200.062 284.533 162.879 295.85 129.737 297.467 130.142 299.487 130.546 301.508 130.546 303.933 130.546 307.167 129.737 310.4 128.929 313.633 164.9 312.017 205.317 300.296 243.712 279.279 284.533 257.05 318.483 227.142 339.096 195.212 358.9 162.071 363.346 130.142 350.008 105.892Z" fill="#FFFFFF" transform="matrix(1.00258 0 -0 1 389 166)"/><path d="M295.85 142.671C291.808 146.308 286.554 148.733 281.3 149.946 287.767 173.792 260.688 210.975 217.846 234.417 194.404 247.35 169.75 254.221 148.733 254.221 128.929 254.221 115.187 248.158 109.125 237.246 103.467 227.142 105.487 213.4 114.379 198.446 112.762 189.15 113.167 179.45 115.187 170.154 110.742 175.004 106.296 180.662 102.658 186.321 88.9167 208.146 86.0875 228.758 94.9792 244.925 103.871 261.092 122.867 269.983 148.733 269.983 172.579 269.983 200.062 262.304 225.525 248.158 278.067 219.867 307.571 174.6 295.85 142.671Z" fill="#FFFFFF" transform="matrix(1.00258 0 -0 1 389 166)"/></g></g></g></g></svg>